
<svg xmlns="http://www.w3.org/2000/svg" version="1.1" xmlns:xlink="http://www.w3.org/1999/xlink" preserveAspectRatio="none" x="0px" y="0px" width="1024px" height="1024px" viewBox="0 0 1024 1024">
<defs>
<g id="Layer1_0_FILL">
<path fill="#292929" stroke="none" d="
M 1024 0
L 0 0 0 1024 1024 1024 1024 0 Z"/>
</g>

<g id="Layer0_0_FILL">
<path fill="#F5AAB9" stroke="none" d="
M 687 133.9
Q 682.65 133.9 678.35 134.05
L 476.4 134.05 497.25 178.95 679.15 178.95
Q 679.6 178.95 680.1 178.95
L 687.5 178.95
Q 688.95 178.95 690.2 178.8 757.75 179.75 805.7 227.7 854.75 276.8 854.75 346.1 854.75 415.35 805.7 464.3 758.35 511.75 691.95 513.35
L 652.35 513.35 848.35 933.9 897.9 933.9 721.65 555.85
Q 787.7 545.9 837.45 496.05 899.65 433.95 899.65 346.1 899.65 258.2 837.45 195.95 775.55 134.05 688.15 133.9
L 687 133.9 Z"/>

<path fill="#5BCFFA" stroke="none" d="
M 185.15 762.1
Q 212.9 698.6 263.75 651.6 312.65 606.4 376.8 582.15 440.35 558.1 509.15 558.25
L 531.6 558.45 531.6 557.95 510.9 513.35 509.3 513.35
Q 432.3 513.2 360.95 540.15 288.6 567.55 233.3 618.55 175.4 672 143.95 744.15 110.6 820.5 110.4 910.5
L 110.4 933.9 155.35 933.9 155.35 910.5
Q 155.35 830.1 185.15 762.1 Z"/>

<path fill="#FFFFFF" stroke="none" d="
M 428.6 134.05
L 379.05 134.05 752.1 933.9 801.7 933.9 428.6 134.05 Z"/>
</g>
</defs>

<g transform="matrix( 1, 0, 0, 1, 0,0) ">
<use xlink:href="#Layer1_0_FILL"/>
</g>

<g transform="matrix( 1, 0, 0, 1, 0,0) ">
<use xlink:href="#Layer0_0_FILL"/>
</g>
</svg>
