<?xml version="1.0" standalone="no"?>
<!DOCTYPE svg PUBLIC "-//W3C//DTD SVG 20010904//EN"
 "http://www.w3.org/TR/2001/REC-SVG-20010904/DTD/svg10.dtd">
<svg version="1.0" xmlns="http://www.w3.org/2000/svg"
 width="700.000000pt" height="700.000000pt" viewBox="0 0 700.000000 700.000000"
 preserveAspectRatio="xMidYMid meet">
<metadata>
Created by Aura Román 2023
</metadata>
<g transform="translate(0.000000,700.000000) scale(0.100000,-0.100000)"
fill="#000000" stroke="none">
<path d="M2645 6230 c-2 -3 7 -25 19 -50 12 -25 40 -85 63 -135 45 -97 78
-169 198 -425 43 -91 93 -199 112 -240 154 -330 371 -796 422 -904 28 -59 51
-109 51 -111 0 -1 24 -54 54 -116 80 -171 132 -281 196 -419 32 -69 76 -163
98 -210 21 -47 72 -155 112 -240 39 -85 87 -187 106 -226 18 -39 47 -102 65
-140 17 -38 47 -103 66 -144 117 -249 147 -312 217 -463 18 -39 65 -139 103
-222 39 -82 82 -175 96 -205 14 -30 46 -100 72 -155 26 -55 76 -163 112 -240
36 -77 81 -174 100 -215 20 -41 51 -109 70 -150 57 -123 83 -179 145 -308 32
-68 58 -127 58 -133 0 -12 -13 -11 181 -12 l166 -2 -17 40 c-10 22 -39 85 -65
140 -26 55 -76 162 -111 237 -35 75 -82 176 -104 223 -23 48 -52 110 -64 138
-13 29 -42 90 -64 137 -63 134 -162 346 -219 470 -14 30 -46 98 -70 150 -25
52 -57 120 -71 150 -13 30 -49 106 -78 168 -30 62 -54 115 -54 116 0 2 -29 64
-64 137 -67 142 -93 198 -186 399 -32 69 -83 178 -114 243 -31 65 -56 120 -56
122 0 1 -26 58 -59 126 -32 68 -102 219 -156 334 -53 116 -114 246 -135 290
-21 44 -83 177 -138 295 -55 118 -118 253 -140 300 -22 47 -102 218 -177 380
-75 162 -155 333 -177 380 -22 47 -51 108 -63 135 -13 28 -42 91 -65 140 -23
50 -55 118 -71 153 -15 34 -34 62 -41 63 -63 3 -321 3 -323 -1z"/>
<path d="M3314 6228 c-3 -5 121 -285 132 -297 3 -3 325 -5 717 -6 391 -1 737
-5 767 -9 160 -24 355 -105 487 -205 74 -56 189 -166 231 -221 177 -233 245
-446 238 -745 -4 -118 -10 -171 -29 -245 -60 -232 -193 -439 -387 -602 -148
-124 -312 -200 -525 -243 -31 -7 -234 -15 -360 -15 -53 0 -73 -3 -71 -12 2 -7
27 -62 56 -123 29 -60 78 -166 110 -235 51 -109 126 -271 240 -515 54 -115
310 -665 341 -732 76 -164 89 -192 206 -443 22 -47 116 -247 208 -445 92 -198
169 -362 171 -364 6 -7 326 -6 330 0 4 8 9 -3 -318 699 -97 206 -235 503 -308
660 -197 423 -202 433 -278 595 -134 286 -169 361 -252 542 l-39 82 57 11
c130 25 318 96 432 162 154 89 360 280 468 433 129 182 216 401 247 620 19
132 10 378 -19 525 -25 130 -114 345 -188 457 -83 125 -211 268 -321 358 -130
106 -297 198 -452 249 -80 26 -99 31 -165 42 -19 3 -37 7 -40 9 -28 17 -1676
30 -1686 13z"/>
<path d="M3317 3634 c-1 -1 -33 -5 -72 -8 -410 -39 -818 -172 -1165 -379 -655
-392 -1092 -1028 -1230 -1788 -11 -63 -23 -139 -26 -169 -3 -30 -7 -71 -10
-90 -8 -68 -13 -430 -6 -431 48 -7 295 -2 298 6 1 6 5 100 8 210 4 167 27 412
41 435 2 4 7 29 11 56 3 27 8 52 11 56 2 5 6 17 8 27 34 176 169 495 291 687
96 151 167 238 319 389 154 154 235 218 405 325 181 113 472 240 655 286 64
16 147 34 175 39 19 3 58 10 85 15 48 9 101 16 210 26 28 2 119 5 203 6 83 0
152 3 152 5 0 3 -15 37 -34 76 -19 40 -50 107 -69 149 l-36 78 -111 -2 c-61
-1 -112 -3 -113 -4z"/>
</g>
</svg>
